<?xml version="1.0" encoding="utf-8"?>

<!-- Uploaded to: SVG Repo, www.svgrepo.com, Generator: SVG Repo Mixer Tools -->
<svg version="1.1" id="Icons" xmlns="http://www.w3.org/2000/svg" xmlns:xlink="http://www.w3.org/1999/xlink" 
	 viewBox="0 0 32 32" xml:space="preserve">
<style type="text/css">
	.st0{fill:none;stroke:#000000;stroke-width:2;stroke-linecap:round;stroke-linejoin:round;stroke-miterlimit:10;}
</style>
<g>
	<path d="M27.4,14.1c-1-1.7-1.7-3.6-1.9-5.5l-0.1-1C25,5,22.9,3,20.5,3c-0.4,0-0.8,0.1-1.1,0.2c1,1.1,1.7,2.6,2,4.2l0.1,1
		c0.2,1.6,0.8,3.2,1.7,4.7c1.2,2.1,1.9,4.7,1.9,7.3c0,4.1-1.7,7.6-4.4,9.6c4.9-0.1,8.4-4.1,8.4-9.6C29,18.1,28.4,16,27.4,14.1z"/>
	<path d="M21.4,14.1c-1-1.7-1.7-3.6-1.9-5.5l-0.1-1C19,5,16.9,3,14.5,3S10,5,9.7,7.7l-0.1,1c-0.3,1.9-0.9,3.7-1.9,5.5
		C6.6,16,6,18.1,6,20.4C6,26,9.6,30,14.5,30s8.5-4,8.5-9.6C23,18.1,22.4,16,21.4,14.1z M14.5,25C12,25,10,22.8,10,20
		c0-2.5,1.8-6.1,4.5-6.1S19,17.5,19,20C19,22.8,17,25,14.5,25z"/>
</g>
</svg>