<?xml version="1.0" encoding="utf-8"?>

<!-- Uploaded to: SVG Repo, www.svgrepo.com, Generator: SVG Repo Mixer Tools -->
<svg version="1.1" id="Icons" xmlns="http://www.w3.org/2000/svg" xmlns:xlink="http://www.w3.org/1999/xlink" 
	 viewBox="0 0 32 32" xml:space="preserve">
<style type="text/css">
	.st0{fill:none;stroke:#000000;stroke-width:2;stroke-linecap:round;stroke-linejoin:round;stroke-miterlimit:10;}
</style>
<path d="M29,10c-0.6,0-1,0.4-1,1v1c0,6.6-5.4,12-12,12S4,18.6,4,12v-1c0-0.6-0.4-1-1-1s-1,0.4-1,1v1c0,7.7,6.3,14,14,14
	s14-6.3,14-14v-1C30,10.4,29.6,10,29,10z"/>
<path d="M25,11H7c-0.6,0-1,0.4-1,1c0,5.5,4.5,10,10,10s10-4.5,10-10C26,11.4,25.6,11,25,11z M13,17c0,0.6-0.4,1-1,1s-1-0.4-1-1v-2
	c0-0.6,0.4-1,1-1s1,0.4,1,1V17z M17,18c0,0.6-0.4,1-1,1s-1-0.4-1-1v-2c0-0.6,0.4-1,1-1s1,0.4,1,1V18z M21,17c0,0.6-0.4,1-1,1
	s-1-0.4-1-1v-2c0-0.6,0.4-1,1-1s1,0.4,1,1V17z"/>
</svg>